<mxfile host="app.diagrams.net" modified="2023-08-10T08:37:02.631Z" agent="Mozilla/5.0 (Macintosh; Intel Mac OS X 10_15_7) AppleWebKit/537.36 (KHTML, like Gecko) Chrome/115.0.0.0 Safari/537.36" version="21.6.6" etag="9n0P_0zqe6pQ3i_Bs4IT" type="github">
  <diagram name="第 1 页" id="L2uT4WtESX-Fn2triWNq">
    <mxGraphModel>
      <root>
        <mxCell id="0" />
        <mxCell id="1" parent="0" />
      </root>
    </mxGraphModel>
  </diagram>
</mxfile>
